# xmcd CD database file
#
# Track frame offsets:
#	150
#	17625
#	40177
#	59145
#	77540
#	100882
#	113367
#	129617
#	150010
#	167747
#	182635
#	197605
#
# Disc length: 2874 seconds
#
# Revision: 0
# Processed by: cddbd v1.5.1PL0 Copyright (c) Steve Scherf et al.
# Submitted via: CDex 1.51
#
DISCID=8a0b380c
DTITLE=ジッタリンジン - ハッピーカムカム
DYEAR=1900
DGENRE=Rock
TTITLE0=エヴリデイ
TTITLE1=Sinky-York
TTITLE2=アニー
TTITLE3=相合傘
TTITLE4=プレゼント
TTITLE5=悲しいな
TTITLE6=雨
TTITLE7=日曜日
TTITLE8=夏祭り
TTITLE9=ひっこし
TTITLE10=バイバイハニー
TTITLE11=帰っておいで
EXTD=
EXTT0=
EXTT1=
EXTT2=
EXTT3=
EXTT4=
EXTT5=
EXTT6=
EXTT7=
EXTT8=
EXTT9=
EXTT10=
EXTT11=
PLAYORDER=
